<svg xmlns="http://www.w3.org/2000/svg" width="800" height="450"><path d="M-47,-117L43,-109L315,-114Z" fill="#3989b8" stroke="#3989b8" stroke-width="1.51"/><path d="M249,558L4,564L373,561Z" fill="#205a8e" stroke="#205a8e" stroke-width="1.51"/><path d="M315,-114L408,-102L588,-94Z" fill="#317aab" stroke="#317aab" stroke-width="1.51"/><path d="M740,542L655,551L811,550Z" fill="#12467b" stroke="#12467b" stroke-width="1.51"/><path d="M826,122L829,170L872,93Z" fill="#205a8f" stroke="#205a8f" stroke-width="1.51"/><path d="M588,-94L659,-92L874,-101Z" fill="#2b6ea1" stroke="#2b6ea1" stroke-width="1.51"/><path d="M315,-114L588,-94L874,-101Z" fill="#2e73a5" stroke="#2e73a5" stroke-width="1.51"/><path d="M659,-92L765,-76L874,-101Z" fill="#296b9e" stroke="#296b9e" stroke-width="1.51"/><path d="M872,93L829,170L880,216Z" fill="#1e588c" stroke="#1e588c" stroke-width="1.51"/><path d="M847,343L884,389L888,309Z" fill="#174c81" stroke="#174c81" stroke-width="1.51"/><path d="M880,216L869,276L888,309Z" fill="#195185" stroke="#195185" stroke-width="1.51"/><path d="M872,93L880,216L894,77Z" fill="#1f598d" stroke="#1f598d" stroke-width="1.51"/><path d="M880,216L888,309L894,77Z" fill="#1c5589" stroke="#1c5589" stroke-width="1.51"/><path d="M799,-19L807,28L896,-43Z" fill="#256497" stroke="#256497" stroke-width="1.51"/><path d="M807,28L894,77L896,-43Z" fill="#236194" stroke="#236194" stroke-width="1.51"/><path d="M811,550L655,551L896,566Z" fill="#104379" stroke="#104379" stroke-width="1.51"/><path d="M655,551L523,561L896,566Z" fill="#13477c" stroke="#13477c" stroke-width="1.51"/><path d="M896,-43L894,77L905,477Z" fill="#1d568a" stroke="#1d568a" stroke-width="1.51"/><path d="M884,389L825,450L905,477Z" fill="#13477c" stroke="#13477c" stroke-width="1.51"/><path d="M811,550L896,566L905,477Z" fill="#0f4177" stroke="#0f4177" stroke-width="1.51"/><path d="M825,450L811,550L905,477Z" fill="#11457a" stroke="#11457a" stroke-width="1.51"/><path d="M888,309L884,389L905,477Z" fill="#14497e" stroke="#14497e" stroke-width="1.51"/><path d="M894,77L888,309L905,477Z" fill="#194f84" stroke="#194f84" stroke-width="1.51"/><path d="M832,387L825,450L884,389Z" fill="#15497f" stroke="#15497f" stroke-width="1.51"/><path d="M807,28L872,93L894,77Z" fill="#225e92" stroke="#225e92" stroke-width="1.51"/><path d="M822,-67L799,-19L896,-43Z" fill="#266698" stroke="#266698" stroke-width="1.51"/><path d="M874,-101L822,-67L896,-43Z" fill="#276699" stroke="#276699" stroke-width="1.51"/><path d="M830,232L869,276L880,216Z" fill="#1b5388" stroke="#1b5388" stroke-width="1.51"/><path d="M765,-76L822,-67L874,-101Z" fill="#28689b" stroke="#28689b" stroke-width="1.51"/><path d="M847,343L832,387L884,389Z" fill="#164b80" stroke="#164b80" stroke-width="1.51"/><path d="M869,276L847,343L888,309Z" fill="#184f83" stroke="#184f83" stroke-width="1.51"/><path d="M408,-102L457,-91L588,-94Z" fill="#3078a9" stroke="#3078a9" stroke-width="1.51"/><path d="M829,170L830,232L880,216Z" fill="#1d568a" stroke="#1d568a" stroke-width="1.51"/><path d="M807,28L826,122L872,93Z" fill="#225e92" stroke="#225e92" stroke-width="1.51"/><path d="M773,254L847,343L869,276Z" fill="#1a5186" stroke="#1a5186" stroke-width="1.51"/><path d="M773,254L772,338L847,343Z" fill="#1a5186" stroke="#1a5186" stroke-width="1.51"/><path d="M830,232L773,254L869,276Z" fill="#1c5488" stroke="#1c5488" stroke-width="1.51"/><path d="M772,338L832,387L847,343Z" fill="#184e83" stroke="#184e83" stroke-width="1.51"/><path d="M619,546L523,561L655,551Z" fill="#164b80" stroke="#164b80" stroke-width="1.51"/><path d="M736,28L769,142L807,28Z" fill="#246195" stroke="#246195" stroke-width="1.51"/><path d="M748,442L740,542L811,550Z" fill="#13467c" stroke="#13467c" stroke-width="1.51"/><path d="M748,442L811,550L825,450Z" fill="#13477c" stroke="#13477c" stroke-width="1.51"/><path d="M749,406L748,442L825,450Z" fill="#164b80" stroke="#164b80" stroke-width="1.51"/><path d="M807,28L769,142L826,122Z" fill="#225e92" stroke="#225e92" stroke-width="1.51"/><path d="M729,174L773,254L829,170Z" fill="#1f598d" stroke="#1f598d" stroke-width="1.51"/><path d="M769,142L729,174L829,170Z" fill="#205c8f" stroke="#205c8f" stroke-width="1.51"/><path d="M826,122L769,142L829,170Z" fill="#205b8f" stroke="#205b8f" stroke-width="1.51"/><path d="M829,170L773,254L830,232Z" fill="#1d578a" stroke="#1d578a" stroke-width="1.51"/><path d="M749,406L825,450L832,387Z" fill="#164b80" stroke="#164b80" stroke-width="1.51"/><path d="M772,338L749,406L832,387Z" fill="#184e83" stroke="#184e83" stroke-width="1.51"/><path d="M765,-76L799,-19L822,-67Z" fill="#27689a" stroke="#27689a" stroke-width="1.51"/><path d="M799,-19L746,-6L807,28Z" fill="#266598" stroke="#266598" stroke-width="1.51"/><path d="M736,28L692,71L769,142Z" fill="#246295" stroke="#246295" stroke-width="1.51"/><path d="M746,-6L736,28L807,28Z" fill="#266598" stroke="#266598" stroke-width="1.51"/><path d="M765,-76L746,-6L799,-19Z" fill="#27689a" stroke="#27689a" stroke-width="1.51"/><path d="M694,453L740,542L748,442Z" fill="#164a7f" stroke="#164a7f" stroke-width="1.51"/><path d="M692,71L673,101L769,142Z" fill="#246295" stroke="#246295" stroke-width="1.51"/><path d="M657,310L749,406L772,338Z" fill="#1b5186" stroke="#1b5186" stroke-width="1.51"/><path d="M683,246L657,310L772,338Z" fill="#1d568a" stroke="#1d568a" stroke-width="1.51"/><path d="M729,174L692,213L773,254Z" fill="#1f5a8e" stroke="#1f5a8e" stroke-width="1.51"/><path d="M683,246L772,338L773,254Z" fill="#1d558a" stroke="#1d558a" stroke-width="1.51"/><path d="M692,213L683,246L773,254Z" fill="#1f598d" stroke="#1f598d" stroke-width="1.51"/><path d="M673,101L729,174L769,142Z" fill="#235f92" stroke="#235f92" stroke-width="1.51"/><path d="M675,-19L746,-6L765,-76Z" fill="#28699c" stroke="#28699c" stroke-width="1.51"/><path d="M657,310L693,426L749,406Z" fill="#1a5185" stroke="#1a5185" stroke-width="1.51"/><path d="M659,-92L675,-19L765,-76Z" fill="#2a6d9f" stroke="#2a6d9f" stroke-width="1.51"/><path d="M694,453L655,551L740,542Z" fill="#14497e" stroke="#14497e" stroke-width="1.51"/><path d="M693,426L748,442L749,406Z" fill="#184d82" stroke="#184d82" stroke-width="1.51"/><path d="M693,426L694,453L748,442Z" fill="#184d82" stroke="#184d82" stroke-width="1.51"/><path d="M675,-19L736,28L746,-6Z" fill="#27679a" stroke="#27679a" stroke-width="1.51"/><path d="M675,-19L692,71L736,28Z" fill="#276699" stroke="#276699" stroke-width="1.51"/><path d="M673,101L692,213L729,174Z" fill="#225f92" stroke="#225f92" stroke-width="1.51"/><path d="M117,548L4,564L249,558Z" fill="#225e92" stroke="#225e92" stroke-width="1.51"/><path d="M457,-91L525,-81L588,-94Z" fill="#2f76a7" stroke="#2f76a7" stroke-width="1.51"/><path d="M590,491L619,546L655,551Z" fill="#164b80" stroke="#164b80" stroke-width="1.51"/><path d="M673,101L623,110L692,213Z" fill="#246194" stroke="#246194" stroke-width="1.51"/><path d="M623,110L598,193L692,213Z" fill="#236194" stroke="#236194" stroke-width="1.51"/><path d="M675,-19L608,28L692,71Z" fill="#28699b" stroke="#28699b" stroke-width="1.51"/><path d="M657,310L606,336L693,426Z" fill="#1c5489" stroke="#1c5489" stroke-width="1.51"/><path d="M606,336L597,417L693,426Z" fill="#1c5388" stroke="#1c5388" stroke-width="1.51"/><path d="M590,491L655,551L694,453Z" fill="#174c81" stroke="#174c81" stroke-width="1.51"/><path d="M693,426L597,417L694,453Z" fill="#195084" stroke="#195084" stroke-width="1.51"/><path d="M597,417L590,491L694,453Z" fill="#194f84" stroke="#194f84" stroke-width="1.51"/><path d="M598,240L683,246L692,213Z" fill="#205c8f" stroke="#205c8f" stroke-width="1.51"/><path d="M598,193L598,240L692,213Z" fill="#225e92" stroke="#225e92" stroke-width="1.51"/><path d="M608,28L673,101L692,71Z" fill="#266699" stroke="#266699" stroke-width="1.51"/><path d="M608,28L623,110L673,101Z" fill="#276699" stroke="#276699" stroke-width="1.51"/><path d="M598,240L657,310L683,246Z" fill="#205a8e" stroke="#205a8e" stroke-width="1.51"/><path d="M588,-94L590,-4L659,-92Z" fill="#2c70a2" stroke="#2c70a2" stroke-width="1.51"/><path d="M659,-92L590,-4L675,-19Z" fill="#2a6da0" stroke="#2a6da0" stroke-width="1.51"/><path d="M590,-4L608,28L675,-19Z" fill="#2a6c9e" stroke="#2a6c9e" stroke-width="1.51"/><path d="M598,240L606,336L657,310Z" fill="#1f598d" stroke="#1f598d" stroke-width="1.51"/><path d="M566,234L561,340L598,240Z" fill="#225d90" stroke="#225d90" stroke-width="1.51"/><path d="M598,240L561,340L606,336Z" fill="#205a8e" stroke="#205a8e" stroke-width="1.51"/><path d="M561,340L597,417L606,336Z" fill="#1e578b" stroke="#1e578b" stroke-width="1.51"/><path d="M536,130L554,162L623,110Z" fill="#266598" stroke="#266598" stroke-width="1.51"/><path d="M608,28L539,63L623,110Z" fill="#28699b" stroke="#28699b" stroke-width="1.51"/><path d="M539,63L536,130L623,110Z" fill="#27689a" stroke="#27689a" stroke-width="1.51"/><path d="M554,162L598,193L623,110Z" fill="#256396" stroke="#256396" stroke-width="1.51"/><path d="M560,420L590,491L597,417Z" fill="#1b5286" stroke="#1b5286" stroke-width="1.51"/><path d="M590,491L559,495L619,546Z" fill="#184d83" stroke="#184d83" stroke-width="1.51"/><path d="M559,495L523,561L619,546Z" fill="#174d82" stroke="#174d82" stroke-width="1.51"/><path d="M525,-81L532,-12L588,-94Z" fill="#2d73a5" stroke="#2d73a5" stroke-width="1.51"/><path d="M588,-94L532,-12L590,-4Z" fill="#2c70a2" stroke="#2c70a2" stroke-width="1.51"/><path d="M560,420L559,495L590,491Z" fill="#1a5186" stroke="#1a5186" stroke-width="1.51"/><path d="M561,340L560,420L597,417Z" fill="#1d558a" stroke="#1d558a" stroke-width="1.51"/><path d="M566,234L598,240L598,193Z" fill="#235f93" stroke="#235f93" stroke-width="1.51"/><path d="M590,-4L539,63L608,28Z" fill="#296c9e" stroke="#296c9e" stroke-width="1.51"/><path d="M532,-12L539,63L590,-4Z" fill="#2b6ea0" stroke="#2b6ea0" stroke-width="1.51"/><path d="M554,162L566,234L598,193Z" fill="#246295" stroke="#246295" stroke-width="1.51"/><path d="M457,304L561,340L566,234Z" fill="#225d91" stroke="#225d91" stroke-width="1.51"/><path d="M477,407L454,493L559,495Z" fill="#1c5488" stroke="#1c5488" stroke-width="1.51"/><path d="M477,407L559,495L560,420Z" fill="#1c5489" stroke="#1c5489" stroke-width="1.51"/><path d="M477,407L560,420L561,340Z" fill="#1e578b" stroke="#1e578b" stroke-width="1.51"/><path d="M554,162L471,182L566,234Z" fill="#256396" stroke="#256396" stroke-width="1.51"/><path d="M471,182L458,258L566,234Z" fill="#256396" stroke="#256396" stroke-width="1.51"/><path d="M458,258L457,304L566,234Z" fill="#246094" stroke="#246094" stroke-width="1.51"/><path d="M457,304L477,407L561,340Z" fill="#205b8f" stroke="#205b8f" stroke-width="1.51"/><path d="M454,493L523,561L559,495Z" fill="#1a5185" stroke="#1a5185" stroke-width="1.51"/><path d="M536,130L471,182L554,162Z" fill="#276699" stroke="#276699" stroke-width="1.51"/><path d="M454,493L459,561L523,561Z" fill="#195085" stroke="#195085" stroke-width="1.51"/><path d="M525,-81L457,-91L532,-12Z" fill="#2e75a6" stroke="#2e75a6" stroke-width="1.51"/><path d="M457,-91L446,3L532,-12Z" fill="#2e74a5" stroke="#2e74a5" stroke-width="1.51"/><path d="M446,3L450,55L532,-12Z" fill="#2c71a3" stroke="#2c71a3" stroke-width="1.51"/><path d="M532,-12L450,55L539,63Z" fill="#2b6ea0" stroke="#2b6ea0" stroke-width="1.51"/><path d="M448,124L536,130L539,63Z" fill="#296a9c" stroke="#296a9c" stroke-width="1.51"/><path d="M450,55L448,124L539,63Z" fill="#2a6c9f" stroke="#2a6c9f" stroke-width="1.51"/><path d="M448,124L471,182L536,130Z" fill="#28689b" stroke="#28689b" stroke-width="1.51"/><path d="M386,-15L446,3L457,-91Z" fill="#2f76a7" stroke="#2f76a7" stroke-width="1.51"/><path d="M396,338L421,401L457,304Z" fill="#225e92" stroke="#225e92" stroke-width="1.51"/><path d="M375,205L458,258L471,182Z" fill="#276699" stroke="#276699" stroke-width="1.51"/><path d="M457,304L421,401L477,407Z" fill="#215c8f" stroke="#215c8f" stroke-width="1.51"/><path d="M421,401L454,493L477,407Z" fill="#1e588c" stroke="#1e588c" stroke-width="1.51"/><path d="M421,401L391,495L454,493Z" fill="#1e578b" stroke="#1e578b" stroke-width="1.51"/><path d="M408,-102L386,-15L457,-91Z" fill="#3079a9" stroke="#3079a9" stroke-width="1.51"/><path d="M454,493L391,495L459,561Z" fill="#1b5488" stroke="#1b5488" stroke-width="1.51"/><path d="M448,124L375,205L471,182Z" fill="#29699b" stroke="#29699b" stroke-width="1.51"/><path d="M398,113L375,205L448,124Z" fill="#2a6b9d" stroke="#2a6b9d" stroke-width="1.51"/><path d="M398,113L448,124L450,55Z" fill="#2b6d9f" stroke="#2b6d9f" stroke-width="1.51"/><path d="M384,75L398,113L450,55Z" fill="#2c6fa1" stroke="#2c6fa1" stroke-width="1.51"/><path d="M404,282L457,304L458,258Z" fill="#246295" stroke="#246295" stroke-width="1.51"/><path d="M375,205L404,282L458,258Z" fill="#266598" stroke="#266598" stroke-width="1.51"/><path d="M391,495L373,561L459,561Z" fill="#1c5388" stroke="#1c5388" stroke-width="1.51"/><path d="M404,282L396,338L457,304Z" fill="#246194" stroke="#246194" stroke-width="1.51"/><path d="M386,-15L384,75L446,3Z" fill="#2e73a5" stroke="#2e73a5" stroke-width="1.51"/><path d="M446,3L384,75L450,55Z" fill="#2d71a3" stroke="#2d71a3" stroke-width="1.51"/><path d="M43,-109L170,-71L315,-114Z" fill="#3785b5" stroke="#3785b5" stroke-width="1.51"/><path d="M320,469L391,495L421,401Z" fill="#1f5a8d" stroke="#1f5a8d" stroke-width="1.51"/><path d="M321,396L320,469L421,401Z" fill="#215d90" stroke="#215d90" stroke-width="1.51"/><path d="M396,338L321,396L421,401Z" fill="#225e92" stroke="#225e92" stroke-width="1.51"/><path d="M341,65L384,75L386,-15Z" fill="#2e73a5" stroke="#2e73a5" stroke-width="1.51"/><path d="M332,-2L341,65L386,-15Z" fill="#2f76a7" stroke="#2f76a7" stroke-width="1.51"/><path d="M317,129L375,205L398,113Z" fill="#2b6d9f" stroke="#2b6d9f" stroke-width="1.51"/><path d="M375,205L307,233L404,282Z" fill="#28679a" stroke="#28679a" stroke-width="1.51"/><path d="M315,-114L386,-15L408,-102Z" fill="#327bac" stroke="#327bac" stroke-width="1.51"/><path d="M315,-114L332,-2L386,-15Z" fill="#327aab" stroke="#327aab" stroke-width="1.51"/><path d="M336,513L373,561L391,495Z" fill="#1e568a" stroke="#1e568a" stroke-width="1.51"/><path d="M307,233L284,313L404,282Z" fill="#276799" stroke="#276799" stroke-width="1.51"/><path d="M305,344L396,338L404,282Z" fill="#246295" stroke="#246295" stroke-width="1.51"/><path d="M284,313L305,344L404,282Z" fill="#266497" stroke="#266497" stroke-width="1.51"/><path d="M316,216L307,233L375,205Z" fill="#296a9c" stroke="#296a9c" stroke-width="1.51"/><path d="M305,344L321,396L396,338Z" fill="#246194" stroke="#246194" stroke-width="1.51"/><path d="M384,75L317,129L398,113Z" fill="#2c70a1" stroke="#2c70a1" stroke-width="1.51"/><path d="M341,65L317,129L384,75Z" fill="#2d71a3" stroke="#2d71a3" stroke-width="1.51"/><path d="M315,-114L281,-76L332,-2Z" fill="#337dae" stroke="#337dae" stroke-width="1.51"/><path d="M320,469L336,513L391,495Z" fill="#1e598d" stroke="#1e598d" stroke-width="1.51"/><path d="M317,129L316,216L375,205Z" fill="#2a6c9e" stroke="#2a6c9e" stroke-width="1.51"/><path d="M336,513L249,558L373,561Z" fill="#1d578b" stroke="#1d578b" stroke-width="1.51"/><path d="M273,269L284,313L307,233Z" fill="#28689b" stroke="#28689b" stroke-width="1.51"/><path d="M278,212L316,216L317,129Z" fill="#2b6d9f" stroke="#2b6d9f" stroke-width="1.51"/><path d="M269,426L320,469L321,396Z" fill="#225e92" stroke="#225e92" stroke-width="1.51"/><path d="M255,-1L246,48L332,-2Z" fill="#3179aa" stroke="#3179aa" stroke-width="1.51"/><path d="M332,-2L246,48L341,65Z" fill="#3077a8" stroke="#3077a8" stroke-width="1.51"/><path d="M246,48L317,129L341,65Z" fill="#2e74a5" stroke="#2e74a5" stroke-width="1.51"/><path d="M281,-76L255,-1L332,-2Z" fill="#327bac" stroke="#327bac" stroke-width="1.51"/><path d="M320,469L268,473L336,513Z" fill="#205b8f" stroke="#205b8f" stroke-width="1.51"/><path d="M268,473L249,558L336,513Z" fill="#1f5a8e" stroke="#1f5a8e" stroke-width="1.51"/><path d="M247,141L278,212L317,129Z" fill="#2c70a2" stroke="#2c70a2" stroke-width="1.51"/><path d="M170,-71L281,-76L315,-114Z" fill="#3581b1" stroke="#3581b1" stroke-width="1.51"/><path d="M246,48L247,141L317,129Z" fill="#2e74a5" stroke="#2e74a5" stroke-width="1.51"/><path d="M269,426L268,473L320,469Z" fill="#225d91" stroke="#225d91" stroke-width="1.51"/><path d="M305,344L269,426L321,396Z" fill="#246194" stroke="#246194" stroke-width="1.51"/><path d="M278,212L307,233L316,216Z" fill="#2a6b9d" stroke="#2a6b9d" stroke-width="1.51"/><path d="M208,351L269,426L305,344Z" fill="#256496" stroke="#256496" stroke-width="1.51"/><path d="M278,212L273,269L307,233Z" fill="#296a9d" stroke="#296a9d" stroke-width="1.51"/><path d="M284,313L208,351L305,344Z" fill="#266598" stroke="#266598" stroke-width="1.51"/><path d="M208,351L206,426L269,426Z" fill="#256396" stroke="#256396" stroke-width="1.51"/><path d="M247,141L212,163L278,212Z" fill="#2d71a2" stroke="#2d71a2" stroke-width="1.51"/><path d="M180,242L273,269L278,212Z" fill="#2a6c9f" stroke="#2a6c9f" stroke-width="1.51"/><path d="M186,-47L255,-1L281,-76Z" fill="#347eaf" stroke="#347eaf" stroke-width="1.51"/><path d="M273,269L208,351L284,313Z" fill="#28679a" stroke="#28679a" stroke-width="1.51"/><path d="M170,-71L186,-47L281,-76Z" fill="#3581b1" stroke="#3581b1" stroke-width="1.51"/><path d="M178,469L249,558L268,473Z" fill="#225d90" stroke="#225d90" stroke-width="1.51"/><path d="M212,163L180,242L278,212Z" fill="#2c6fa1" stroke="#2c6fa1" stroke-width="1.51"/><path d="M178,469L163,519L249,558Z" fill="#215d91" stroke="#215d91" stroke-width="1.51"/><path d="M206,426L268,473L269,426Z" fill="#236093" stroke="#236093" stroke-width="1.51"/><path d="M180,242L208,351L273,269Z" fill="#296a9d" stroke="#296a9d" stroke-width="1.51"/><path d="M246,48L169,127L247,141Z" fill="#2f76a7" stroke="#2f76a7" stroke-width="1.51"/><path d="M206,426L178,469L268,473Z" fill="#236094" stroke="#236094" stroke-width="1.51"/><path d="M163,519L117,548L249,558Z" fill="#215d91" stroke="#215d91" stroke-width="1.51"/><path d="M180,22L246,48L255,-1Z" fill="#327bac" stroke="#327bac" stroke-width="1.51"/><path d="M186,-47L180,22L255,-1Z" fill="#347eae" stroke="#347eae" stroke-width="1.51"/><path d="M43,-109L93,-73L170,-71Z" fill="#3887b6" stroke="#3887b6" stroke-width="1.51"/><path d="M180,22L169,127L246,48Z" fill="#3179aa" stroke="#3179aa" stroke-width="1.51"/><path d="M169,127L212,163L247,141Z" fill="#2f74a5" stroke="#2f74a5" stroke-width="1.51"/><path d="M107,279L124,334L180,242Z" fill="#2b6ea0" stroke="#2b6ea0" stroke-width="1.51"/><path d="M169,127L92,176L180,242Z" fill="#2e74a6" stroke="#2e74a6" stroke-width="1.51"/><path d="M180,242L124,334L208,351Z" fill="#296b9d" stroke="#296b9d" stroke-width="1.51"/><path d="M136,381L206,426L208,351Z" fill="#266699" stroke="#266699" stroke-width="1.51"/><path d="M169,127L180,242L212,163Z" fill="#2e73a4" stroke="#2e73a4" stroke-width="1.51"/><path d="M124,334L136,381L208,351Z" fill="#28699b" stroke="#28699b" stroke-width="1.51"/><path d="M125,129L92,176L169,127Z" fill="#3077a8" stroke="#3077a8" stroke-width="1.51"/><path d="M136,381L178,469L206,426Z" fill="#256497" stroke="#256497" stroke-width="1.51"/><path d="M93,41L125,129L169,127Z" fill="#327aab" stroke="#327aab" stroke-width="1.51"/><path d="M136,381L108,468L178,469Z" fill="#266597" stroke="#266597" stroke-width="1.51"/><path d="M93,41L169,127L180,22Z" fill="#327bac" stroke="#327bac" stroke-width="1.51"/><path d="M124,-37L180,22L186,-47Z" fill="#3580b1" stroke="#3580b1" stroke-width="1.51"/><path d="M170,-71L124,-37L186,-47Z" fill="#3682b2" stroke="#3682b2" stroke-width="1.51"/><path d="M108,468L163,519L178,469Z" fill="#246195" stroke="#246195" stroke-width="1.51"/><path d="M124,-37L93,41L180,22Z" fill="#3480b0" stroke="#3480b0" stroke-width="1.51"/><path d="M92,176L107,279L180,242Z" fill="#2d72a4" stroke="#2d72a4" stroke-width="1.51"/><path d="M93,-73L124,-37L170,-71Z" fill="#3784b4" stroke="#3784b4" stroke-width="1.51"/><path d="M108,468L117,548L163,519Z" fill="#236094" stroke="#236094" stroke-width="1.51"/><path d="M45,194L63,278L92,176Z" fill="#2f75a7" stroke="#2f75a7" stroke-width="1.51"/><path d="M92,176L63,278L107,279Z" fill="#2e73a5" stroke="#2e73a5" stroke-width="1.51"/><path d="M55,343L66,399L124,334Z" fill="#296c9e" stroke="#296c9e" stroke-width="1.51"/><path d="M93,41L49,97L125,129Z" fill="#337cad" stroke="#337cad" stroke-width="1.51"/><path d="M124,334L66,399L136,381Z" fill="#286a9c" stroke="#286a9c" stroke-width="1.51"/><path d="M66,399L108,468L136,381Z" fill="#27689a" stroke="#27689a" stroke-width="1.51"/><path d="M63,278L55,343L107,279Z" fill="#2c70a1" stroke="#2c70a1" stroke-width="1.51"/><path d="M108,468L35,533L117,548Z" fill="#246295" stroke="#246295" stroke-width="1.51"/><path d="M35,533L4,564L117,548Z" fill="#246194" stroke="#246194" stroke-width="1.51"/><path d="M107,279L55,343L124,334Z" fill="#2b6ea0" stroke="#2b6ea0" stroke-width="1.51"/><path d="M24,-29L93,41L124,-37Z" fill="#3683b3" stroke="#3683b3" stroke-width="1.51"/><path d="M93,-73L24,-29L124,-37Z" fill="#3786b5" stroke="#3786b5" stroke-width="1.51"/><path d="M49,97L92,176L125,129Z" fill="#3179aa" stroke="#3179aa" stroke-width="1.51"/><path d="M50,58L49,97L93,41Z" fill="#347faf" stroke="#347faf" stroke-width="1.51"/><path d="M26,496L35,533L108,468Z" fill="#256497" stroke="#256497" stroke-width="1.51"/><path d="M66,399L26,496L108,468Z" fill="#276699" stroke="#276699" stroke-width="1.51"/><path d="M49,97L45,194L92,176Z" fill="#317aaa" stroke="#317aaa" stroke-width="1.51"/><path d="M43,-109L24,-29L93,-73Z" fill="#3988b8" stroke="#3988b8" stroke-width="1.51"/><path d="M24,-29L50,58L93,41Z" fill="#3582b2" stroke="#3582b2" stroke-width="1.51"/><path d="M-8,99L45,194L49,97Z" fill="#327dad" stroke="#327dad" stroke-width="1.51"/><path d="M24,-29L-24,43L50,58Z" fill="#3684b4" stroke="#3684b4" stroke-width="1.51"/><path d="M6,267L55,343L63,278Z" fill="#2d71a3" stroke="#2d71a3" stroke-width="1.51"/><path d="M45,194L6,267L63,278Z" fill="#2e75a6" stroke="#2e75a6" stroke-width="1.51"/><path d="M55,343L-8,418L66,399Z" fill="#2a6c9e" stroke="#2a6c9e" stroke-width="1.51"/><path d="M-8,418L26,496L66,399Z" fill="#28699c" stroke="#28699c" stroke-width="1.51"/><path d="M-8,99L-42,174L45,194Z" fill="#337cad" stroke="#337cad" stroke-width="1.51"/><path d="M-31,-42L24,-29L43,-109Z" fill="#3989b8" stroke="#3989b8" stroke-width="1.51"/><path d="M-8,99L49,97L50,58Z" fill="#347fb0" stroke="#347fb0" stroke-width="1.51"/><path d="M6,267L-45,326L55,343Z" fill="#2d72a4" stroke="#2d72a4" stroke-width="1.51"/><path d="M-45,326L-8,418L55,343Z" fill="#2c6fa1" stroke="#2c6fa1" stroke-width="1.51"/><path d="M-24,43L-8,99L50,58Z" fill="#3581b2" stroke="#3581b2" stroke-width="1.51"/><path d="M-47,-117L-31,-42L43,-109Z" fill="#3b8cbb" stroke="#3b8cbb" stroke-width="1.51"/><path d="M-42,174L6,267L45,194Z" fill="#3179a9" stroke="#3179a9" stroke-width="1.51"/><path d="M-8,418L-44,480L26,496Z" fill="#28699c" stroke="#28699c" stroke-width="1.51"/><path d="M26,496L4,564L35,533Z" fill="#256397" stroke="#256397" stroke-width="1.51"/><path d="M-31,-42L-24,43L24,-29Z" fill="#3887b7" stroke="#3887b7" stroke-width="1.51"/><path d="M-44,480L4,564L26,496Z" fill="#266699" stroke="#266699" stroke-width="1.51"/><path d="M-31,-42L-65,7L-24,43Z" fill="#3888b7" stroke="#3888b7" stroke-width="1.51"/><path d="M-45,326L-82,421L-8,418Z" fill="#2c6fa1" stroke="#2c6fa1" stroke-width="1.51"/><path d="M-44,480L-113,552L4,564Z" fill="#276699" stroke="#276699" stroke-width="1.51"/><path d="M-42,174L-114,259L6,267Z" fill="#3179aa" stroke="#3179aa" stroke-width="1.51"/><path d="M-114,259L-66,303L6,267Z" fill="#2f77a8" stroke="#2f77a8" stroke-width="1.51"/><path d="M-66,303L-45,326L6,267Z" fill="#2e75a6" stroke="#2e75a6" stroke-width="1.51"/><path d="M-24,43L-73,41L-8,99Z" fill="#3684b3" stroke="#3684b3" stroke-width="1.51"/><path d="M-73,41L-111,114L-8,99Z" fill="#3684b3" stroke="#3684b3" stroke-width="1.51"/><path d="M-111,114L-80,162L-8,99Z" fill="#3581b1" stroke="#3581b1" stroke-width="1.51"/><path d="M-80,162L-42,174L-8,99Z" fill="#347faf" stroke="#347faf" stroke-width="1.51"/><path d="M-82,421L-44,480L-8,418Z" fill="#2a6c9f" stroke="#2a6c9f" stroke-width="1.51"/><path d="M-80,162L-114,259L-42,174Z" fill="#337dad" stroke="#337dad" stroke-width="1.51"/><path d="M-47,-117L-99,-69L-31,-42Z" fill="#3b8ebc" stroke="#3b8ebc" stroke-width="1.51"/><path d="M-65,7L-73,41L-24,43Z" fill="#3887b6" stroke="#3887b6" stroke-width="1.51"/><path d="M-112,477L-113,552L-44,480Z" fill="#296a9c" stroke="#296a9c" stroke-width="1.51"/><path d="M-99,-69L-65,7L-31,-42Z" fill="#3a8bba" stroke="#3a8bba" stroke-width="1.51"/><path d="M-66,303L-82,421L-45,326Z" fill="#2d73a4" stroke="#2d73a4" stroke-width="1.51"/><path d="M-82,421L-112,477L-44,480Z" fill="#2a6c9f" stroke="#2a6c9f" stroke-width="1.51"/><path d="M-114,259L-82,421L-66,303Z" fill="#2e75a6" stroke="#2e75a6" stroke-width="1.51"/><path d="M-99,-69L-73,41L-65,7Z" fill="#398ab9" stroke="#398ab9" stroke-width="1.51"/><path d="M-99,-69L-111,114L-73,41Z" fill="#3988b8" stroke="#3988b8" stroke-width="1.51"/><path d="M-114,259L-112,477L-82,421Z" fill="#2d72a4" stroke="#2d72a4" stroke-width="1.51"/><path d="M-111,114L-114,259L-80,162Z" fill="#347faf" stroke="#347faf" stroke-width="1.51"/><path d="M-114,259L-113,552L-112,477Z" fill="#2c70a2" stroke="#2c70a2" stroke-width="1.51"/></svg>